<svg xmlns="http://www.w3.org/2000/svg" xmlns:xlink="http://www.w3.org/1999/xlink" width="307.503" height="126.903" viewBox="0 0 230.627 95.177"><path d="M224.562.397H6.067a5.67 5.67 0 0 0-5.67 5.67v83.042a5.67 5.67 0 0 0 5.67 5.67h218.495a5.67 5.67 0 0 0 5.67-5.67V6.067a5.67 5.67 0 0 0-5.67-5.67zM.398 94.78" fill="#e6e6ff"/><path stroke-width=".797" stroke-miterlimit="10" fill="none" stroke="#000" d="M224.562.397H6.067a5.67 5.67 0 0 0-5.67 5.67v83.042a5.67 5.67 0 0 0 5.67 5.67h218.495a5.67 5.67 0 0 0 5.67-5.67V6.067a5.67 5.67 0 0 0-5.67-5.67zM.398 94.78"/><symbol id="a"><path d="M.31.433C.31.45.31.459.298.459c-.005 0-.007 0-.02-.012A.318.318 0 0 0 .261.431a.156.156 0 0 1-.096.028C.033.459 0 .386 0 .335 0 .303.014.277.037.255.071.224.109.217.16.208.211.198.228.195.25.178.26.17.285.151.285.113.285.025.184.025.17.025.068.025.042.11.03.164.027.174.026.18.014.18 0 .18 0 .172 0 .154V.026C0 .009 0 0 .012 0c.006 0 .007.001.025.02a.231.231 0 0 0 .02.024A.154.154 0 0 1 .17 0c.123 0 .166.072.166.139 0 .045-.02.072-.042.095C.26.267.224.274.15.288.124.293.051.306.051.363c0 .032.023.074.114.074C.273.437.28.354.282.329.283.317.283.311.296.311.31.311.31.318.31.337v.096z"/></symbol><symbol id="b"><path d="M.162.558C.156.572.156.577.156.579c0 .026.034.026.055.026v.031C.162.634.142.633.1.633c-.003 0-.06 0-.099.003V.605C.046.605.065.603.077.576L.235.205.21.146C.188.093.159.025.094.025.069.025.052.038.049.04a.041.041 0 0 1 .036.043.04.04 0 0 1-.042.042C.018.125 0 .109 0 .082 0 .037.042 0 .094 0c.065 0 .108.058.132.113l.181.423C.418.562.436.603.5.605v.031C.468.633.437.633.424.633.396.633.365.634.337.636V.605C.383.603.383.567.383.563A.066.066 0 0 0 .375.534L.274.296.162.558z"/></symbol><symbol id="c"><path d="M.306.411v.031H.161v.184H.133C.132.542.097.439 0 .436V.411h.087V.135C.087.023.168 0 .221 0c.067 0 .102.064.102.135v.057H.295V.138c0-.074-.031-.11-.067-.11-.067 0-.067.088-.067.106v.277h.145z"/></symbol><symbol id="d"><path d="M.371.24c.022 0 .027 0 .027.021 0 .103-.056.198-.184.198C.094.459 0 .355 0 .231 0 .1.105 0 .227 0c.122 0 .171.107.171.13 0 .007-.005.013-.014.013C.374.143.371.136.37.132A.142.142 0 0 0 .232.028.137.137 0 0 0 .12.089.265.265 0 0 0 .086.24h.285M.087.264c.009.154.099.17.127.17.055 0 .115-.042.116-.17H.087z"/></symbol><symbol id="e"><path d="M.151.259c0 .108.078.158.138.158.055 0 .073-.039.073-.109V.077C.362.031.351.031.285.031V0c.047.002.066.003.114.003S.46.002.513 0v.031c-.066 0-.077 0-.077.046v.182c0 .108.078.158.138.158.055 0 .073-.039.073-.109V.077C.647.031.636.031.57.031V0c.047.002.066.003.114.003S.745.002.798 0v.031c-.051 0-.076 0-.077.031v.192c0 .087 0 .115-.033.152C.667.43.627.442.581.442A.165.165 0 0 1 .432.347C.42.406.38.442.296.442a.163.163 0 0 1-.15-.098H.145v.098L0 .431V.4C.068.4.077.393.077.344V.077C.077.031.066.031 0 .031V0c.047.002.066.003.114.003S.175.002.228 0v.031c-.066 0-.077 0-.077.046v.182z"/></symbol><symbol id="f"><path d="M.375.695C.37.708.367.716.351.716S.333.71.327.694L.112.1C.1.067.077.032 0 .031V0c.038.003.065.003.102.003L.215 0v.031C.158.032.141.063.141.082c0 .009.002.014.004.019L.192.23h.259L.505.079C.509.069.51.066.51.061c0-.03-.056-.03-.082-.03V0c.045.003.097.003.143.003.045 0 .048 0 .131-.003v.031H.685C.623.031.612.04.602.068L.375.695M.439.261H.203l.118.327.118-.327z"/></symbol><symbol id="g"><path d="M.108.377c0 .03-.024.054-.054.054A.054.054 0 0 1 0 .377C0 .348.024.323.054.323s.054.025.054.054m0-.323a.054.054 0 0 1-.054.054A.054.054 0 0 1 0 .054C0 .024.024 0 .054 0s.054.024.054.054z"/></symbol><use xlink:href="#a" transform="matrix(8.9664 0 0 -8.9664 7.245 40.74)"/><use xlink:href="#b" transform="matrix(8.9664 0 0 -8.9664 10.75 42.48)"/><use xlink:href="#a" transform="matrix(8.9664 0 0 -8.9664 15.736 40.74)"/><use xlink:href="#c" transform="matrix(8.9664 0 0 -8.9664 19.233 40.74)"/><use xlink:href="#d" transform="matrix(8.9664 0 0 -8.9664 22.91 40.74)"/><use xlink:href="#e" transform="matrix(8.9664 0 0 -8.9664 27.06 40.641)"/><use xlink:href="#f" transform="matrix(8.9664 0 0 -8.9664 37.811 40.641)"/><use xlink:href="#g" transform="matrix(8.9664 0 0 -8.9664 45.209 40.641)"/><symbol id="h"><path d="M.043.963C.043.98.043 1 .022 1 0 1 0 .981 0 .963V.037C0 .02 0 0 .021 0c.022 0 .022.019.022.037v.926z"/></symbol><use xlink:href="#h" transform="matrix(8.9664 0 0 -8.9664 51.135 42.883)"/><symbol id="i"><path d="M.468.888c0 .001 0 .011-.013.011C.443.899.442.894.438.878L.274.221C.202.23.157.263.157.332a.51.51 0 0 0 .051.175c.008.022.014.037.014.056a.083.083 0 0 1-.086.084C.04.647 0 .505 0 .493 0 .484.007.481.014.481.025.481.026.487.03.5c.021.073.061.122.103.122.02 0 .024-.013.024-.033A.192.192 0 0 0 .142.523C.093.398.087.364.087.339c0-.072.049-.134.18-.143L.222.011C.222.01.222 0 .235 0c.012 0 .013.003.018.025.014.056.029.112.042.169.036 0 .14 0 .24.125.048.06.065.11.083.201a.283.283 0 0 1 .005.054c0 .07-.037.074-.046.074C.552.648.526.621.526.598c0-.015.009-.023.016-.029A.112.112 0 0 0 .578.486.296.296 0 0 0 .483.301C.404.222.338.219.302.219l.166.669z"/></symbol><use xlink:href="#i" transform="matrix(8.9664 0 0 -8.9664 52.869 42.48)"/><symbol id="j"><path d="M.238.635c0 .03-.004.03-.034.03C.138.601.036.601 0 .601V.562c.026 0 .092 0 .152.028V.085c0-.033 0-.046-.103-.046H.006V0c.055.004.133.004.189.004.056 0 .134 0 .189-.004v.039H.341C.238.039.238.052.238.085v.55z"/></symbol><use xlink:href="#j" transform="matrix(5.9776 0 0 -5.9776 59.344 41.637)"/><symbol id="k"><path d="M.223.481c.006.014.006.016.006.018 0 .003 0 .005-.006.019L.046.975C.039.993.033.999.021.999A.021.021 0 0 1 0 .977C0 .975 0 .973.006.959L.184.5.006.04C0 .026 0 .024 0 .022 0 .009.01 0 .021 0c.012 0 .018.006.025.024l.177.457z"/></symbol><use xlink:href="#k" transform="matrix(8.9664 0 0 -8.9664 63.284 42.874)"/><symbol id="l"><path d="M.186.611c0 .034.002.041.049.041h.13C.463.652.504.574.504.514.504.437.437.368.343.368H.186v.243M.431.357C.53.377.6.44.6.514.6.602.504.683.372.683H0V.652h.023C.1.652.102.641.102.604V.079C.102.042.1.031.023.031H0V0h.4c.135 0 .229.089.229.182 0 .09-.087.163-.198.175M.235.031C.188.031.186.038.186.072v.271h.189C.491.343.53.245.53.184.53.107.47.031.367.031H.235z"/></symbol><use xlink:href="#a" transform="matrix(8.9664 0 0 -8.9664 7.437 63.417)"/><use xlink:href="#b" transform="matrix(8.9664 0 0 -8.9664 10.943 65.156)"/><use xlink:href="#a" transform="matrix(8.9664 0 0 -8.9664 15.928 63.417)"/><use xlink:href="#c" transform="matrix(8.9664 0 0 -8.9664 19.425 63.417)"/><use xlink:href="#d" transform="matrix(8.9664 0 0 -8.9664 23.101 63.417)"/><use xlink:href="#e" transform="matrix(8.9664 0 0 -8.9664 27.253 63.318)"/><use xlink:href="#l" transform="matrix(8.9664 0 0 -8.9664 38.066 63.318)"/><use xlink:href="#g" transform="matrix(8.9664 0 0 -8.9664 45.015 63.318)"/><use xlink:href="#h" transform="matrix(8.9664 0 0 -8.9664 50.943 65.56)"/><use xlink:href="#i" transform="matrix(8.9664 0 0 -8.9664 52.678 65.156)"/><symbol id="m"><path d="M.466.187H.429C.427.173.417.107.402.096.395.09.314.09.3.09H.113l.128.104c.034.027.123.091.154.121.03.03.071.081.071.152 0 .125-.113.198-.247.198C.09.665 0 .58 0 .486 0 .435.043.429.054.429c.025 0 .054.018.054.054 0 .022-.013.054-.057.054.023.051.084.089.153.089A.154.154 0 0 0 .365.467C.365.396.318.323.248.259L.011.042C.001.032 0 .031 0 0h.435l.031.187z"/></symbol><use xlink:href="#m" transform="matrix(5.9776 0 0 -5.9776 58.86 64.314)"/><use xlink:href="#k" transform="matrix(8.9664 0 0 -8.9664 63.092 65.55)"/><symbol id="n"><path d="M.299.083C.304.041.333.005.376.005.401.005.464.02.464.1v.056H.436V.101C.436.09.436.04.4.04S.364.088.364.104v.175c0 .057 0 .091-.045.132a.2.2 0 0 1-.135.048C.1.459.03.417.03.353.03.322.051.305.077.305c.027 0 .046.02.046.046 0 .043-.044.048-.045.048.027.026.075.035.104.035C.233.434.29.396.29.308V.275A.498.498 0 0 1 .094.236C.022.201 0 .149 0 .109 0 .027.097 0 .164 0c.083 0 .121.055.135.083M.29.152A.119.119 0 0 0 .171.025C.124.025.08.059.08.109c0 .066.057.136.21.142V.152z"/></symbol><symbol id="o"><path d="M.151.259c0 .106.075.158.138.158.059 0 .072-.049.072-.109V.077C.361.031.35.031.284.031V0C.331.002.35.003.398.003S.459.002.512 0v.031c-.051 0-.076 0-.077.031v.192c0 .083 0 .112-.028.147C.384.429.346.442.296.442a.166.166 0 0 1-.15-.097H.145v.097L0 .431V.4C.068.4.077.393.077.344V.077C.077.031.066.031 0 .031V0c.047.002.066.003.114.003S.175.002.228 0v.031c-.066 0-.077 0-.077.046v.182z"/></symbol><symbol id="p"><path d="M.33.404C.309.4.289.386.289.357c0-.026.02-.046.046-.046s.047.017.047.048c0 .062-.07.1-.158.1A.227.227 0 0 1 0 .227C0 .098.104 0 .222 0c.139 0 .171.121.171.13 0 .012-.011.012-.014.012C.368.142.368.14.362.123a.133.133 0 0 0-.13-.095c-.064 0-.146.052-.146.2 0 .156.08.203.14.203A.207.207 0 0 0 .33.404z"/></symbol><symbol id="q"><path d="M.148.442.004.431V.4C.068.4.077.394.077.345V.077C.077.031.066.031 0 .031V0c.045.002.066.003.11.003.016 0 .058 0 .107-.003v.031C.152.031.148.036.148.075v.367m.003.174C.151.646.127.67.097.67A.054.054 0 0 1 .043.616c0-.029.023-.054.054-.054.03 0 .054.024.054.054z"/></symbol><symbol id="r"><path d="M.148.694 0 .683V.652C.068.652.077.645.077.596V.077C.077.031.066.031 0 .031V0c.047.002.066.003.112.003C.159.003.176.002.225 0v.031c-.066 0-.077 0-.077.046v.617z"/></symbol><use xlink:href="#n" transform="matrix(8.9664 0 0 -8.9664 15.276 86.094)"/><use xlink:href="#o" transform="matrix(8.9664 0 0 -8.9664 19.813 85.995)"/><use xlink:href="#p" transform="matrix(8.9664 0 0 -8.9664 24.923 86.094)"/><use xlink:href="#q" transform="matrix(8.9664 0 0 -8.9664 29.039 85.995)"/><use xlink:href="#r" transform="matrix(8.9664 0 0 -8.9664 31.603 85.995)"/><use xlink:href="#r" transform="matrix(8.9664 0 0 -8.9664 34.168 85.995)"/><use xlink:href="#n" transform="matrix(8.9664 0 0 -8.9664 36.795 86.094)"/><use xlink:href="#g" transform="matrix(8.9664 0 0 -8.9664 41.807 85.995)"/><use xlink:href="#h" transform="matrix(8.9664 0 0 -8.9664 48.74 88.237)"/><symbol id="s"><path d="M.433.342A.541.541 0 0 1 .395.57a.19.19 0 0 1-.178.118.19.19 0 0 1-.18-.12A.54.54 0 0 1 0 .342.51.51 0 0 1 .045.101.19.19 0 0 1 .216 0a.19.19 0 0 1 .181.12c.03.067.036.142.036.222M.217.025c-.03 0-.102.014-.121.127-.01.059-.01.145-.01.202 0 .068 0 .147.012.202.02.089.084.107.118.107.038 0 .101-.02.12-.113C.347.495.347.417.347.354c0-.062 0-.146-.01-.205C.316.035.242.025.217.025z"/></symbol><use xlink:href="#s" transform="matrix(8.9664 0 0 -8.9664 50.574 86.192)"/><use xlink:href="#k" transform="matrix(8.9664 0 0 -8.9664 55.334 88.228)"/><path stroke-width=".797" stroke-miterlimit="10" fill="none" stroke="#000" d="m80.586 41.8 2.834-6.802M80.586 64.478l2.834-6.803"/><use xlink:href="#h" transform="matrix(8.9664 0 0 -8.9664 91.365 28.71)"/><symbol id="t"><path d="M.297.163C.157.195.156.362.156.415a.237.237 0 0 1-.022.103C.112.555.081.555.062.555H.027C.011.555 0 .555 0 .542 0 .532.009.531.019.53.071.522.072.435.072.395c0-.027.008-.104.047-.16a.237.237 0 0 1 .178-.1V.08C.297.043.293.031.202.031H.17V0c.035.003.129.003.169.003.04 0 .134 0 .169-.003v.031H.476C.385.031.381.043.381.08v.055c.201.024.23.176.231.286 0 .014.001.101.057.109.005.001.015.002.015.012 0 .013-.011.013-.027.013H.622C.573.555.529.534.528.4.527.304.498.188.381.163v.44c0 .037.004.049.095.049h.032v.031C.473.68.379.68.339.68.299.68.205.68.17.683V.652h.032C.293.652.297.64.297.603v-.44z"/></symbol><use xlink:href="#t" transform="matrix(8.9664 0 0 -8.9664 93.35 26.468)"/><symbol id="u"><path d="M.49.34c0 .073 0 .346-.245.346S0 .413 0 .34C0 .268 0 0 .245 0S.49.268.49.34M.245.032c-.042 0-.11.02-.134.103C.095.193.095.291.095.353c0 .067 0 .144.014.198.025.09.101.103.136.103A.135.135 0 0 0 .379.556.818.818 0 0 0 .395.353c0-.064 0-.165-.017-.221a.136.136 0 0 0-.133-.1z"/></symbol><use xlink:href="#u" transform="matrix(5.9776 0 0 -5.9776 100.366 27.59)"/><use xlink:href="#k" transform="matrix(8.9664 0 0 -8.9664 104.67 28.7)"/><path stroke-width=".797" stroke-dasharray="2.98883,2.98883" stroke-miterlimit="10" fill="none" stroke="#000" d="M99.011 32.73v56.693"/><path d="M111.942 90.666h13.824V76.842h-13.824z" fill="#fff"/><path stroke-width=".797" stroke-miterlimit="10" fill="none" stroke="#000" d="M111.942 90.666h13.824V76.842h-13.824z"/><symbol id="v"><path d="M.536.694H.44V.393H.096v.301H0V0h.096v.328H.44V0h.096v.694z"/></symbol><use xlink:href="#v" transform="matrix(8.9664 0 0 -8.9664 116.446 86.867)"/><path stroke-width=".797" stroke-miterlimit="10" fill="none" stroke="#000" d="M111.544 83.754H61.877"/><use xlink:href="#h" transform="matrix(8.9664 0 0 -8.9664 131.049 28.71)"/><use xlink:href="#t" transform="matrix(8.9664 0 0 -8.9664 133.035 26.468)"/><use xlink:href="#j" transform="matrix(5.9776 0 0 -5.9776 140.415 27.464)"/><use xlink:href="#k" transform="matrix(8.9664 0 0 -8.9664 144.354 28.7)"/><path stroke-width=".797" stroke-dasharray="2.98883,2.98883" stroke-miterlimit="10" fill="none" stroke="#000" d="M138.697 32.73v56.693"/><path stroke-width=".797" stroke-miterlimit="10" fill="none" stroke="#000" d="m152.87 41.234 5.67-5.67M152.87 35.564l5.67 5.67M152.87 63.911l5.67-5.67M152.87 58.242l5.67 5.67"/><path d="M158.196 83.754a2.49 2.49 0 1 0-4.982 0 2.49 2.49 0 0 0 4.982 0zm-2.491 0"/><path stroke-width=".797" stroke-miterlimit="10" fill="none" stroke="#000" d="M152.816 83.754h-26.652M155.705 38.399v42.466"/><use xlink:href="#h" transform="matrix(8.9664 0 0 -8.9664 165.065 28.71)"/><use xlink:href="#t" transform="matrix(8.9664 0 0 -8.9664 167.051 26.468)"/><use xlink:href="#m" transform="matrix(5.9776 0 0 -5.9776 174.138 27.464)"/><use xlink:href="#k" transform="matrix(8.9664 0 0 -8.9664 178.37 28.7)"/><path stroke-width=".797" stroke-dasharray="2.98883,2.98883" stroke-miterlimit="10" fill="none" stroke="#000" d="M172.713 32.73v56.693"/><path d="M199.818 45.31h13.823V31.488h-13.823z" fill="#fff"/><path stroke-width=".797" stroke-miterlimit="10" fill="none" stroke="#000" d="M199.818 45.31h13.823V31.488h-13.823z"/><symbol id="w"><path d="M.708.455c0 .158-.106.272-.263.272C.221.727 0 .497 0 .269 0 .105.113 0 .264 0c.223 0 .444.223.444.455M.271.03C.175.03.096.103.096.244c0 .052.017.2.1.314a.317.317 0 0 0 .242.141C.536.699.617.628.617.493a.606.606 0 0 0-.11-.324C.432.069.34.03.271.03z"/></symbol><use xlink:href="#w" transform="matrix(8.9664 0 0 -8.9664 203.541 41.66)"/><path stroke-width=".797" stroke-miterlimit="10" fill="none" stroke="#000" d="M199.42 38.399H69.826"/><path d="M198.681 67.988h16.096V54.165h-16.096z" fill="#fff"/><path stroke-width=".797" stroke-miterlimit="10" fill="none" stroke="#000" d="M198.681 67.988h16.096V54.165h-16.096z"/><use xlink:href="#w" transform="matrix(8.9664 0 0 -8.9664 202.2 64.84)"/><symbol id="x"><path d="M.253.431a.082.082 0 0 1 .009.032C.262.494.234.52.201.52.161.52.149.485.145.471L.005.043C.003.037 0 .029 0 .025 0 .008.04 0 .041 0 .05 0 .054.009.058.017l.195.414z"/></symbol><use xlink:href="#x" transform="matrix(5.9776 0 0 -5.9776 209.384 60.6)"/><path stroke-width=".797" stroke-miterlimit="10" fill="none" stroke="#000" d="M198.283 61.077H69.635"/><path d="M195.554 90.666h22.35V76.842h-22.35z" fill="#fff"/><path stroke-width=".797" stroke-miterlimit="10" fill="none" stroke="#000" d="M195.554 90.666h22.35V76.842h-22.35z"/><symbol id="y"><path d="M.493.38c.013 0 .05 0 .05.036 0 .026-.022.026-.041.026H.267C.116.442 0 .285 0 .16 0 .059.071 0 .156 0c.122 0 .257.121.257.273 0 .063-.027.102-.03.107h.11M.157.025C.12.025.066.046.066.133.066.202.105.38.25.38.299.38.345.358.345.284a.366.366 0 0 0-.058-.18C.254.057.203.025.157.025z"/></symbol><use xlink:href="#y" transform="matrix(8.9664 0 0 -8.9664 198.973 84.704)"/><symbol id="z"><path d="M.5.403A.056.056 0 0 1 .457.349C.457.317.483.31.497.31c.029 0 .058.024.058.063 0 .054-.059.078-.11.078C.379.451.339.4.328.381a.138.138 0 0 1-.126.07C.087.451.019.332.019.297c0-.005.004-.014.018-.014.014 0 .017.006.02.015.025.081.093.12.142.12.049 0 .064-.032.064-.065 0-.012 0-.021-.008-.052C.232.208.21.117.205.105.19.067.154.033.112.033c-.006 0-.034 0-.057.015a.059.059 0 0 1 .043.054c0 .026-.02.039-.04.039C.03.141 0 .119 0 .078 0 .021.063 0 .11 0c.057 0 .098.039.117.07C.247.028.295 0 .352 0 .47 0 .536.121.536.154c0 .002-.001.014-.019.014C.503.168.501.161.498.152.469.065.398.033.356.033.318.033.291.055.291.097c0 .019.005.041.014.076l.032.13c.01.039.015.057.036.081a.098.098 0 0 0 .07.034C.448.418.478.418.5.403z"/></symbol><symbol id="A"><path d="M.101.208c0-.095-.05-.15-.075-.172C.016.026.013.024.013.018.013.009.022 0 .03 0c.014 0 .104.08.104.203C.134.266.108.315.06.315A.059.059 0 0 1 0 .255.06.06 0 0 1 .061.194c.015 0 .029.004.04.014z"/></symbol><symbol id="B"><path d="M.535.588a.058.058 0 0 1 .003.014.034.034 0 0 1-.036.033A.048.048 0 0 1 .461.61C.457.603.45.572.445.553L.424.47.393.345C.386.317.382.301.342.263A.133.133 0 0 0 .256.227C.182.227.182.292.182.31c0 .044.012.089.056.199.01.024.013.031.013.049 0 .056-.05.087-.1.087C.049.645 0 .513 0 .491 0 .486.004.477.018.477c.014 0 .017.006.02.015.028.097.081.12.109.12.02 0 .027-.013.027-.036A.274.274 0 0 0 .15.494a.493.493 0 0 1-.047-.17c0-.095.071-.13.149-.13.014 0 .061 0 .114.046C.353.185.344.146.296.094A.175.175 0 0 0 .173.033C.164.033.121.034.098.06c.044.008.05.047.05.056 0 .027-.022.038-.041.038C.082.154.049.134.049.088.049.04.096 0 .174 0 .28 0 .408.078.439.203l.096.385z"/></symbol><use xlink:href="#z" transform="matrix(5.9776 0 0 -5.9776 204.27 85.66)"/><use xlink:href="#A" transform="matrix(5.9776 0 0 -5.9776 208.836 86.76)"/><use xlink:href="#B" transform="matrix(5.9776 0 0 -5.9776 210.701 86.82)"/><path stroke-width=".797" stroke-miterlimit="10" fill="none" stroke="#000" d="M195.155 83.754h-36.561"/><symbol id="C"><path d="M.197.604c0 .036.002.048.082.048h.025v.031C.263.68.195.68.152.68S.041.68 0 .683V.652h.025C.105.652.107.64.107.604V.079C.107.043.105.031.025.031H0V0c.041.003.109.003.152.003S.263.003.304 0v.031H.279c-.08 0-.082.012-.082.048v.525z"/></symbol><symbol id="D"><path d="M.151.53a.152.152 0 0 0 .131.078C.36.608.42.518.42.41.42.296.352.208.271.208a.132.132 0 0 0-.107.061C.151.289.151.291.151.31v.22m0-.288C.177.216.211.183.277.183A.23.23 0 0 1 .506.41.221.221 0 0 1 .29.636.191.191 0 0 1 .148.573v.063L0 .625V.594C.071.594.077.588.077.545V.077C.077.031.066.031 0 .031V0c.047.002.066.003.114.003S.175.002.228 0v.031c-.066 0-.077 0-.077.046v.165z"/></symbol><symbol id="E"><path d="M.361.178C.361.089.311.025.239.025.156.025.151.068.151.122v.331L0 .442V.411C.077.411.077.408.077.319v-.15c0-.065 0-.107.046-.142A.198.198 0 0 1 .233 0c.052 0 .101.023.13.083h.001V0l.148.011v.031C.444.042.435.049.435.098v.355L.284.442V.411C.352.411.361.404.361.355V.178z"/></symbol><use xlink:href="#C" transform="matrix(8.9664 0 0 -8.9664 25.81 12.245)"/><use xlink:href="#o" transform="matrix(8.9664 0 0 -8.9664 29.154 12.245)"/><use xlink:href="#D" transform="matrix(8.9664 0 0 -8.9664 34.23 13.984)"/><use xlink:href="#E" transform="matrix(8.9664 0 0 -8.9664 39.394 12.344)"/><use xlink:href="#c" transform="matrix(8.9664 0 0 -8.9664 44.37 12.344)"/><symbol id="F"><path d="M.684.361c0 .204-.155.366-.342.366C.155.727 0 .564 0 .361 0 .158.156 0 .342 0c.186 0 .342.158.342.361M.342.03c-.101 0-.24.088-.24.346 0 .244.143.323.24.323S.582.62.582.376C.582.118.443.03.342.03z"/></symbol><symbol id="G"><path d="M.148.229c0 .041.011.188.125.188V.416A.044.044 0 0 1 .255.379c0-.027.021-.044.044-.044C.32.335.343.35.343.38c0 .032-.03.062-.075.062C.208.442.166.4.143.338H.142v.104L0 .431V.4C.068.4.077.393.077.344V.077C.077.031.066.031 0 .031V0c.053.002.066.003.117.003L.244 0v.031h-.02C.151.031.148.042.148.079v.15z"/></symbol><symbol id="H"><path d="M.455.224a.232.232 0 0 1-.227.235A.232.232 0 0 1 0 .224C0 .099.104 0 .227 0c.127 0 .228.101.228.224M.228.028a.131.131 0 0 0-.115.064.266.266 0 0 0-.027.141c0 .037 0 .094.025.135.03.051.08.066.116.066A.136.136 0 0 0 .345.368.28.28 0 0 0 .369.233c0-.037 0-.095-.025-.139A.135.135 0 0 0 .228.028z"/></symbol><use xlink:href="#F" transform="matrix(8.9664 0 0 -8.9664 116.01 12.442)"/><use xlink:href="#D" transform="matrix(8.9664 0 0 -8.9664 122.931 13.984)"/><use xlink:href="#d" transform="matrix(8.9664 0 0 -8.9664 128.302 12.344)"/><use xlink:href="#G" transform="matrix(8.9664 0 0 -8.9664 132.409 12.245)"/><use xlink:href="#n" transform="matrix(8.9664 0 0 -8.9664 136.13 12.344)"/><use xlink:href="#c" transform="matrix(8.9664 0 0 -8.9664 140.523 12.344)"/><use xlink:href="#q" transform="matrix(8.9664 0 0 -8.9664 144.253 12.245)"/><use xlink:href="#H" transform="matrix(8.9664 0 0 -8.9664 146.755 12.344)"/><use xlink:href="#o" transform="matrix(8.9664 0 0 -8.9664 151.417 12.245)"/><symbol id="I"><path d="M.189.376v.257c0 .026.002.035.021.039a.527.527 0 0 0 .062.002c.086 0 .213 0 .213-.149C.485.439.441.376.305.376H.189M.414.361c.095.027.173.086.173.164 0 .099-.121.18-.268.18H0V.674h.023C.1.674.102.663.102.626V.101C.102.064.1.053.023.053H0V.022c.047.003.097.003.145.003.048 0 .098 0 .146-.003v.031H.268C.191.053.189.064.189.101v.25h.12C.381.351.413.313.417.309c.03-.037.03-.052.03-.123 0-.067 0-.111.048-.149C.542 0 .602 0 .613 0c.084 0 .099.087.099.111 0 .006 0 .018-.014.018C.685.129.685.12.684.112.679.049.648.025.617.025c-.032 0-.043.02-.051.037C.557.084.548.152.542.197.534.259.525.326.414.361z"/></symbol><symbol id="J"><path d="M.355.131C.355.113.355.11.34.089A.143.143 0 0 0 .223.025a.13.13 0 0 0-.109.066.272.272 0 0 0-.028.134c0 .047.006.1.032.14a.143.143 0 0 0 .116.063.134.134 0 0 0 .109-.059C.355.353.355.352.355.333V.131m.003.263A.171.171 0 0 1 .23.453.229.229 0 0 1 0 .226C0 .101.1 0 .219 0c.073 0 .118.043.136.064V0l.151.011v.031C.438.042.429.049.429.098v.607L.281.694V.663C.349.663.358.656.358.607V.394z"/></symbol><use xlink:href="#I" transform="matrix(8.9664 0 0 -8.9664 190.126 13.363)"/><use xlink:href="#d" transform="matrix(8.9664 0 0 -8.9664 196.815 13.265)"/><use xlink:href="#n" transform="matrix(8.9664 0 0 -8.9664 201.038 13.265)"/><use xlink:href="#J" transform="matrix(8.9664 0 0 -8.9664 205.566 13.265)"/><use xlink:href="#H" transform="matrix(8.9664 0 0 -8.9664 210.64 13.265)"/><use xlink:href="#E" transform="matrix(8.9664 0 0 -8.9664 215.303 13.265)"/><use xlink:href="#c" transform="matrix(8.9664 0 0 -8.9664 220.28 13.265)"/></svg>